<?xml version="1.0" standalone="no"?>
<!DOCTYPE svg PUBLIC "-//W3C//DTD SVG 20010904//EN"
 "http://www.w3.org/TR/2001/REC-SVG-20010904/DTD/svg10.dtd">
<svg version="1.0" xmlns="http://www.w3.org/2000/svg"
 width="1024.000000pt" height="1024.000000pt" viewBox="0 0 1024.000000 1024.000000"
 preserveAspectRatio="xMidYMid meet">
<metadata>
Created by potrace 1.11, written by Peter Selinger 2001-2013
</metadata>
<g transform="translate(0.000000,1024.000000) scale(0.100000,-0.100000)"
fill="#000000" stroke="none">
<path d="M2110 7080 l0 -330 295 0 295 0 0 -1630 0 -1630 -295 0 -295 0 0
-330 0 -330 920 0 920 0 -2 328 -3 327 -292 3 -293 2 0 1630 0 1630 293 2 292
3 3 328 2 327 -920 0 -920 0 0 -330z"/>
<path d="M4200 7080 l0 -330 295 0 295 0 0 -1630 0 -1630 -295 0 -295 0 0
-330 0 -330 920 0 920 0 0 330 0 330 -295 0 -295 0 0 1630 0 1630 295 0 295 0
0 330 0 330 -920 0 -920 0 0 -330z"/>
<path d="M6292 7083 l3 -328 293 -3 292 -2 0 -1630 0 -1630 -292 -2 -293 -3
-3 -327 -2 -328 920 0 920 0 0 330 0 330 -295 0 -295 0 0 1630 0 1630 295 0
295 0 0 330 0 330 -920 0 -920 0 2 -327z"/>
</g>
</svg>
